<?xml version="1.0" encoding="UTF-8" standalone="no"?>
<svg
   data-name="pc"
   viewBox="0 0 42.783802 18.277485"
   x="0px"
   y="0px"
   version="1.1"
   id="svg4"
   sodipodi:docname="noun-poke-1039906.svg"
   width="42.783802"
   height="18.277485"
   inkscape:version="1.3.2 (091e20e, 2023-11-25, custom)"
   xmlns:inkscape="http://www.inkscape.org/namespaces/inkscape"
   xmlns:sodipodi="http://sodipodi.sourceforge.net/DTD/sodipodi-0.dtd"
   xmlns="http://www.w3.org/2000/svg"
   xmlns:svg="http://www.w3.org/2000/svg">
  <defs
     id="defs4" />
  <sodipodi:namedview
     id="namedview4"
     pagecolor="#ffffff"
     bordercolor="#000000"
     borderopacity="0.25"
     inkscape:showpageshadow="2"
     inkscape:pageopacity="0.0"
     inkscape:pagecheckerboard="0"
     inkscape:deskcolor="#d1d1d1"
     inkscape:zoom="8.7907515"
     inkscape:cx="19.22475"
     inkscape:cy="35.321212"
     inkscape:window-width="1920"
     inkscape:window-height="991"
     inkscape:window-x="-9"
     inkscape:window-y="-9"
     inkscape:window-maximized="1"
     inkscape:current-layer="svg4" />
  <title
     id="title1">icone-gesturesespanse</title>
  <path
     d="m 40.123976,2.08222 c -0.3,0 -1.352,-0.038 -2.653,-0.084 -2.273,-0.081 -5.388,-0.182 -6.334,-0.167 a 40.111,40.111 0 0 1 -4.933,-0.449 c -1,-0.128 -1.937,-0.249 -2.274,-0.249 a 33.938,33.938 0 0 0 -3.442,0.473 31.3,31.3 0 0 1 -3.531,0.477 h -6.835 v 11.647 c 1.886,-0.347 3.211,0.623 5.018,1.967 2.258,1.682 6.325,-0.142 7.291,-0.722 a 8.2,8.2 0 0 1 2.959,-0.935 c 0.407,-0.083 0.888,-0.181 1.464,-0.3 1.645,-0.353 1.692,-1.651 1.6,-2.952 0,-0.048 -0.007,-0.094 -0.01,-0.137 a 22.924,22.924 0 0 0 -3.167,-0.722 c -0.592,-0.109 -1.083,-0.2 -1.508,-0.289 v 0 a 8.96,8.96 0 0 1 -1.238,-0.322 c -0.659,-0.176 -1.413,-0.387 -1.812,-0.531 a 8.27,8.27 0 0 1 -1.679,-0.888 0.65002019,0.65002019 0 0 1 0.747,-1.064 6.973,6.973 0 0 0 1.372,0.729 c 0.182,0.065 0.455,0.148 0.762,0.237 a 4.405,4.405 0 0 1 4.035,-2.985 c 1.2,-0.049 2.709,-0.118 4.213,-0.206 0.741,-0.044 1.838,-0.092 3.037,-0.145 2.589,-0.114 6.135,-0.271 6.761,-0.427 0.863,-0.216 1.113,-0.762 1.059,-1.2 a 0.846,0.846 0 0 0 -0.902,-0.756 z"
     fill="none"
     id="path1" />
  <rect
     x="0.84597617"
     y="0.73021924"
     width="7.9759998"
     height="14.152"
     fill="none"
     id="rect1" />
  <path
     d="m 23.169976,8.13922 c 0.41,0.108 0.732,0.19 0.85,0.219 0.481,0.1 1.023,0.2 1.493,0.289 0.947,0.175 1.7,0.321 2.308,0.467 l 0.848,-3.124 c -0.959,0.049 -1.879,0.09 -2.659,0.122 a 3.116,3.116 0 0 0 -2.84,2.027 z"
     fill="none"
     id="path2" />
  <path
     d="M 40.579,1.35 C 40.287,1.35 39.251,1.313 37.972,1.268 35.555,1.181 32.549,1.075 31.557,1.101 a 40.075,40.075 0 0 1 -4.731,-0.44 c -1.129,-0.145 -2.02,-0.26 -2.44,-0.26 A 31.831,31.831 0 0 0 20.732,0.892 32.692,32.692 0 0 1 17.413,1.35 H 10.577 V 0.65 A 0.65,0.65 0 0 0 9.9270003,0 H 0.65 A 0.65,0.65 0 0 0 0,0.65 v 15.452 a 0.65,0.65 0 0 0 0.65,0.65 H 9.9260003 A 0.65,0.65 0 0 0 10.576,16.102 v -0.5 a 0.62,0.62 0 0 0 0.081,0 c 1.355,-0.321 2.257,0.295 4.174,1.721 a 5.169,5.169 0 0 0 3.153,0.952 12.845,12.845 0 0 0 5.57,-1.617 7.163,7.163 0 0 1 2.55,-0.776 c 0.412,-0.083 0.9,-0.182 1.479,-0.307 2.886,-0.619 2.7,-3.3 2.623,-4.315 -0.009,-0.127 -0.017,-0.234 -0.017,-0.316 0,-0.376 -0.222,-0.64 -0.675,-0.861 l 0.976,-3.6 0.211,-0.012 C 31.438,6.428 32.527,6.38 33.719,6.327 37.388,6.166 40.039,6.038 40.738,5.864 A 2.423,2.423 0 0 0 42.773,3.242 2.139,2.139 0 0 0 40.579,1.35 Z M 9.2790003,15.45 H 1.301 V 1.299 H 9.2770003 Z M 28.279,9.682 C 27.67,9.536 26.919,9.39 25.971,9.215 25.501,9.128 24.959,9.026 24.478,8.926 24.36,8.896 24.038,8.814 23.628,8.707 A 3.116,3.116 0 0 1 26.467,6.68 c 0.78,-0.032 1.7,-0.073 2.659,-0.122 z M 40.425,4.604 c -0.626,0.156 -4.172,0.313 -6.761,0.427 -1.2,0.053 -2.3,0.1 -3.037,0.145 -1.5,0.088 -3.018,0.157 -4.213,0.206 A 4.405,4.405 0 0 0 22.379,8.367 C 22.072,8.279 21.798,8.195 21.617,8.13 a 6.973,6.973 0 0 1 -1.372,-0.729 0.65002019,0.65002019 0 0 0 -0.747,1.064 8.27,8.27 0 0 0 1.679,0.888 c 0.4,0.144 1.153,0.354 1.813,0.531 a 8.96,8.96 0 0 0 1.238,0.322 v 0 c 0.425,0.088 0.916,0.18 1.508,0.289 a 22.924,22.924 0 0 1 3.167,0.722 c 0,0.043 0.006,0.089 0.01,0.137 0.092,1.3 0.044,2.6 -1.6,2.952 -0.576,0.124 -1.057,0.222 -1.464,0.3 a 8.2,8.2 0 0 0 -2.959,0.935 c -0.966,0.58 -5.033,2.4 -7.291,0.722 -1.807,-1.344 -3.132,-2.314 -5.018,-1.967 V 2.651 h 6.834 a 31.3,31.3 0 0 0 3.531,-0.477 33.938,33.938 0 0 1 3.442,-0.473 c 0.337,0 1.278,0.121 2.274,0.249 a 40.111,40.111 0 0 0 4.933,0.449 c 0.946,-0.015 4.061,0.086 6.334,0.167 1.3,0.046 2.356,0.084 2.653,0.084 a 0.846,0.846 0 0 1 0.9,0.753 c 0.053,0.44 -0.197,0.986 -1.06,1.202 z"
     id="path3"
     style="fill:#ffffff;fill-opacity:1" />
</svg>
